<svg id="svg" xmlns="http://www.w3.org/2000/svg" xmlns:xlink="http://www.w3.org/1999/xlink" width="400" height="400" viewBox="0, 0, 400,400"><g id="svgg"><path id="path0" d="M114.335 114.554 C 108.839 120.403,109.240 120.935,149.598 161.317 L 188.258 200.000 149.598 238.683 C 109.505 278.800,108.574 280.048,114.554 285.665 C 120.403 291.161,120.935 290.760,161.317 250.402 L 200.000 211.742 238.683 250.402 C 278.800 290.495,280.048 291.426,285.665 285.446 C 291.161 279.597,290.760 279.065,250.402 238.683 L 211.742 200.000 250.402 161.317 C 290.495 121.200,291.426 119.952,285.446 114.335 C 279.597 108.839,279.065 109.240,238.683 149.598 L 200.000 188.258 161.317 149.598 C 121.200 109.505,119.952 108.574,114.335 114.554 M118.764 114.515 C 110.618 118.637,112.066 120.636,152.565 161.159 L 191.383 200.000 152.565 238.841 C 112.066 279.364,110.618 281.363,118.764 285.485 C 120.905 286.568,121.657 287.464,120.436 287.477 C 117.354 287.509,112.500 282.842,112.500 279.847 C 112.500 278.483,129.897 259.959,151.160 238.683 L 189.820 200.000 151.160 161.317 C 129.897 140.041,112.500 121.639,112.500 120.424 C 112.500 117.324,117.184 112.495,120.164 112.523 C 121.725 112.537,121.201 113.282,118.764 114.515 M284.643 115.086 C 289.808 119.760,287.867 122.266,248.840 161.317 L 210.180 200.000 248.840 238.683 C 270.103 259.959,287.500 278.361,287.500 279.576 C 287.500 282.676,282.816 287.505,279.836 287.477 C 278.275 287.463,278.799 286.718,281.236 285.485 C 289.382 281.363,287.934 279.364,247.435 238.841 L 208.617 200.000 247.435 161.159 C 287.934 120.636,289.382 118.637,281.236 114.515 C 279.095 113.432,278.343 112.536,279.564 112.523 C 280.786 112.510,283.071 113.664,284.643 115.086 M238.672 151.555 L 277.344 113.289 238.672 152.344 L 200.000 191.398 161.328 152.344 L 122.656 113.289 161.328 151.555 L 200.000 189.820 238.672 151.555 M239.074 248.047 L 277.344 286.719 238.672 248.449 L 200.000 210.180 161.328 248.449 L 122.656 286.719 160.926 248.047 C 181.974 226.777,199.557 209.375,200.000 209.375 C 200.443 209.375,218.026 226.777,239.074 248.047 " stroke="none" fill="#000000" fill-rule="evenodd"></path></g></svg>