<svg id="svg" xmlns="http://www.w3.org/2000/svg" xmlns:xlink="http://www.w3.org/1999/xlink" width="400" height="400" viewBox="0, 0, 400,400"><g id="svgg"><path id="path0" d="M112.500 50.283 C 112.500 50.642,121.903 73.915,122.425 74.847 C 122.701 75.341,125.182 72.694,131.031 65.666 C 135.552 60.234,140.338 54.487,141.668 52.895 L 144.087 50.000 128.293 50.000 C 119.607 50.000,112.500 50.127,112.500 50.283 M150.335 51.125 C 150.890 51.744,155.578 57.425,160.752 63.750 C 165.926 70.075,170.302 75.417,170.476 75.621 C 170.708 75.893,182.693 53.410,183.917 50.409 C 184.008 50.184,176.263 50.000,166.705 50.000 L 149.326 50.000 150.335 51.125 M181.214 64.619 L 174.712 77.250 184.606 77.385 C 190.048 77.460,198.989 77.460,204.477 77.385 L 214.453 77.250 201.544 64.772 C 194.444 57.910,188.428 52.226,188.175 52.142 C 187.922 52.057,184.790 57.672,181.214 64.619 M95.938 64.930 L 83.127 77.250 92.063 77.386 C 96.978 77.461,105.036 77.461,109.968 77.386 L 118.936 77.250 113.983 65.056 C 111.258 58.350,108.966 52.806,108.890 52.736 C 108.813 52.666,102.985 58.153,95.938 64.930 M136.512 65.486 L 126.473 77.500 146.516 77.500 C 162.422 77.500,166.480 77.371,166.174 76.875 C 165.535 75.837,147.430 54.016,146.974 53.734 C 146.741 53.590,142.033 58.878,136.512 65.486 M110.750 108.722 C 126.150 123.948,138.785 136.371,138.829 136.328 C 138.872 136.285,134.811 123.875,129.805 108.750 L 120.702 81.250 101.726 81.144 L 82.750 81.037 110.750 108.722 M125.110 81.625 C 125.229 81.969,129.809 95.610,135.288 111.939 C 146.556 145.519,146.484 145.372,150.442 143.143 C 152.270 142.114,151.676 143.887,157.767 121.250 C 160.135 112.450,163.518 99.880,165.286 93.316 C 167.054 86.753,168.500 81.296,168.500 81.191 C 168.500 81.086,158.688 81.000,146.697 81.000 C 129.471 81.000,124.939 81.131,125.110 81.625 M165.349 109.060 C 161.278 124.489,158.015 137.178,158.099 137.255 C 158.182 137.333,171.075 124.716,186.750 109.218 L 215.250 81.040 194.000 81.022 L 172.750 81.005 165.349 109.060 M87.250 98.551 C 17.277 154.961,53.086 268.574,142.860 274.990 C 150.861 275.562,149.712 274.780,151.822 281.090 C 175.519 351.958,266.632 373.203,319.771 320.252 C 374.692 265.523,350.294 171.528,275.709 150.506 C 213.626 133.007,150.164 177.937,146.656 241.875 L 146.347 247.500 144.723 247.500 C 131.425 247.500,112.376 239.163,100.530 228.157 C 68.344 198.255,71.125 144.475,106.180 118.909 C 108.144 117.477,109.856 116.225,109.986 116.126 C 110.115 116.027,109.954 115.780,109.627 115.579 C 109.301 115.377,104.774 111.001,99.567 105.856 C 94.361 100.710,90.022 96.508,89.926 96.518 C 89.829 96.528,88.625 97.443,87.250 98.551 M199.010 106.240 C 193.111 112.145,189.471 116.149,189.765 116.409 C 190.032 116.645,191.713 117.941,193.500 119.290 C 200.640 124.676,208.083 133.426,212.500 141.625 C 213.648 143.756,214.706 145.500,214.851 145.500 C 214.997 145.500,217.910 144.607,221.326 143.515 C 227.543 141.527,236.740 139.500,239.541 139.500 C 241.847 139.500,241.773 138.489,239.056 132.917 C 234.211 122.979,228.101 114.291,220.442 106.449 C 216.596 102.511,209.697 96.500,209.023 96.500 C 208.868 96.500,204.362 100.883,199.010 106.240 M102.500 114.593 C 91.911 121.344,80.261 134.456,74.375 146.250 C 47.622 199.849,83.243 262.077,143.361 266.767 C 146.989 267.050,148.021 267.300,148.197 267.938 C 148.320 268.385,148.566 269.256,148.744 269.875 C 149.152 271.295,147.339 271.360,138.651 270.238 C 68.710 261.208,38.215 179.624,85.480 127.989 C 90.430 122.582,103.147 112.647,105.250 112.545 C 105.525 112.532,104.287 113.453,102.500 114.593 M263.250 169.982 C 290.507 175.830,312.801 192.918,324.921 217.250 C 327.271 221.967,331.045 231.915,330.962 233.173 C 330.941 233.491,330.188 231.613,329.287 229.000 C 309.174 170.633,234.842 153.266,191.226 196.743 C 157.788 230.074,157.781 282.549,191.211 315.752 C 234.513 358.759,309.140 341.828,328.956 284.500 C 329.764 282.163,330.442 280.513,330.462 280.835 C 330.701 284.537,322.570 300.819,316.415 308.965 C 284.872 350.712,223.306 356.043,186.067 320.250 C 132.726 268.980,160.193 181.108,233.264 169.264 C 240.040 168.165,256.636 168.563,263.250 169.982 M260.112 179.288 C 299.482 185.676,325.856 225.946,316.202 264.933 C 301.947 322.497,227.392 337.571,191.760 290.094 C 166.027 255.807,177.673 205.712,215.948 186.051 L 221.021 183.446 220.715 185.598 C 217.643 207.246,203.562 228.125,185.442 237.902 L 182.017 239.750 182.018 242.750 C 182.021 247.800,184.057 259.512,184.929 259.493 C 185.806 259.474,194.548 254.366,198.609 251.500 C 219.928 236.454,232.388 213.376,233.791 186.341 C 234.141 179.590,234.161 179.500,235.323 179.500 C 236.496 179.500,236.500 179.523,236.491 185.625 C 236.443 217.512,217.913 247.210,188.997 261.740 C 187.486 262.499,186.178 263.184,186.090 263.261 C 185.680 263.624,187.233 267.500,187.788 267.500 C 188.938 267.500,199.274 262.076,203.797 259.100 C 230.234 241.700,245.931 214.743,248.750 181.898 L 249.081 178.045 252.416 178.313 C 254.249 178.460,257.713 178.898,260.112 179.288 " stroke="none" fill="#000000" fill-rule="evenodd"></path></g></svg>